<svg xmlns="http://www.w3.org/2000/svg" width="100px" preserveAspectRatio="none" height="187" viewBox="0 0 1440 187">
  <defs>
    <!-- Gradiente linear -->
    <linearGradient id="gradient-color" x1="0" y1="0" x2="1" y2="0">
      <stop offset="0%" stop-color="#A461EF" />
      <stop offset="50%" stop-color="#F864A2" />
      <stop offset="100%" stop-color="#FB9071" />
    </linearGradient>
  </defs>

  <!-- Caminho com o gradiente aplicado -->
  <path
    d="m3,10v4c0,.55225-.44775,1-1,1s-1-.44775-1-1v-4c0-.55225.44775-1,1-1s1,.44775,1,1Zm3-2c-.55225,0-1,.44775-1,1v6c0,.55225.44775,1,1,1s1-.44775,1-1v-6c0-.55225-.44775-1-1-1Zm4-4c-.55225,0-1,.44775-1,1v14c0,.55225.44775,1,1,1s1-.44775,1-1V5c0-.55225-.44775-1-1-1Zm4,2c-.55225,0-1,.44775-1,1v10c0,.55225.44775,1,1,1s1-.44775,1-1V7c0-.55225-.44775-1-1-1Zm4,2c-.55225,0-1,.44775-1,1v6c0,.55225.44775,1,1,1s1-.44775,1-1v-6c0-.55225-.44775-1-1-1Zm4,2c-.55225,0-1,.44775-1,1v2c0,.55225.44775,1,1,1s1-.44775,1-1v-2c0-.55225-.44775-1-1-1Z"
    fill="url(#gradient-color)"
  />
</svg>
